<?xml version="1.0" standalone="no"?>
<!DOCTYPE svg PUBLIC "-//W3C//DTD SVG 20010904//EN"
 "http://www.w3.org/TR/2001/REC-SVG-20010904/DTD/svg10.dtd">
<svg version="1.0" xmlns="http://www.w3.org/2000/svg"
 width="270.000000pt" height="270.000000pt" viewBox="0 0 270.000000 270.000000"
 preserveAspectRatio="xMidYMid meet">

<g transform="translate(0.000000,270.000000) scale(0.100000,-0.100000)"
fill="#000000" stroke="none">
<path d="M1247 2104 c-280 -50 -517 -268 -588 -541 -29 -111 -29 -271 0 -377
37 -135 93 -228 196 -331 151 -151 313 -219 515 -218 288 2 538 157 660 408
59 121 74 190 73 335 0 113 -3 134 -32 221 -88 271 -324 469 -605 508 -95 14
-120 13 -219 -5z m294 -59 c282 -73 491 -321 516 -609 l6 -72 -59 -31 c-33
-17 -90 -39 -127 -49 -42 -10 -101 -37 -156 -70 -49 -30 -130 -70 -180 -89
-50 -19 -108 -46 -128 -60 l-38 -25 298 0 c163 0 297 -3 297 -7 -1 -5 -9 -18
-19 -30 l-19 -23 -564 0 -564 0 -17 30 -18 30 266 0 c231 0 269 2 291 17 l26
16 -120 42 c-73 26 -150 62 -198 93 -49 31 -112 60 -164 76 -47 14 -109 40
-139 57 l-53 31 6 61 c20 175 81 303 206 427 179 179 415 246 651 185z m255
-1210 l-39 -35 -384 0 -384 0 -35 26 c-19 15 -34 30 -34 35 0 5 200 9 458 9
l457 -1 -39 -34z"/>
<path d="M1354 1907 c-3 -8 -4 -49 -2 -93 3 -66 6 -79 21 -82 15 -3 17 6 17
92 0 80 -3 96 -15 96 -9 0 -18 -6 -21 -13z"/>
<path d="M1186 1812 c-9 -14 32 -117 48 -120 21 -4 21 21 0 81 -14 43 -35 60
-48 39z"/>
<path d="M1507 1767 c-21 -67 -21 -79 0 -75 9 2 24 24 34 53 23 65 23 75 1 75
-13 0 -23 -15 -35 -53z"/>
<path d="M995 1730 c-9 -14 8 -40 58 -89 40 -38 67 -47 67 -21 0 11 -100 120
-110 120 -5 0 -12 -4 -15 -10z"/>
<path d="M1673 1682 c-37 -42 -49 -63 -42 -73 6 -11 20 -2 64 41 52 51 70 90
42 90 -7 0 -36 -26 -64 -58z"/>
<path d="M870 1555 c-13 -16 6 -31 84 -65 35 -16 51 -19 59 -11 15 15 2 26
-71 61 -50 24 -63 26 -72 15z"/>
<path d="M1793 1537 c-60 -30 -75 -48 -53 -62 12 -7 132 55 137 71 8 24 -24
20 -84 -9z"/>
<path d="M1286 1515 c-47 -17 -101 -67 -128 -120 -20 -38 -30 -128 -15 -132 4
-2 111 -3 237 -3 l230 0 0 40 c0 158 -169 270 -324 215z"/>
<path d="M832 1363 c3 -15 16 -18 81 -21 72 -3 77 -1 77 18 0 18 -6 20 -81 20
-71 0 -80 -2 -77 -17z"/>
<path d="M1752 1363 c3 -15 16 -19 77 -21 51 -2 77 1 82 10 14 23 -2 28 -82
28 -71 0 -80 -2 -77 -17z"/>
<path d="M1156 1192 c5 -5 36 -18 70 -30 90 -32 209 -30 300 4 38 14 71 28 73
30 2 2 -99 4 -224 4 -126 0 -225 -4 -219 -8z"/>
</g>
</svg>
