<?xml version="1.0" standalone="no"?><!DOCTYPE svg PUBLIC "-//W3C//DTD SVG 1.1//EN" "http://www.w3.org/Graphics/SVG/1.1/DTD/svg11.dtd"><svg t="1725149528480" class="icon" viewBox="0 0 1024 1024" version="1.1" xmlns="http://www.w3.org/2000/svg" p-id="4285" xmlns:xlink="http://www.w3.org/1999/xlink" width="200" height="200"><path d="M832 0H192a192 192 0 0 0-192 192v640a192 192 0 0 0 192 192h640a192 192 0 0 0 192-192V192a192 192 0 0 0-192-192zM128 832c0-100.864 58.752-187.264 143.552-228.928A191.36 191.36 0 0 1 192 448.064a192 192 0 1 1 384 0 191.36 191.36 0 0 1-79.552 155.008A255.04 255.04 0 0 1 640 832H128z m768 0a64 64 0 0 1-64-64 190.784 190.784 0 0 0-107.84-171.648 64 64 0 0 1-9.344-109.12A126.72 126.72 0 0 0 768 384c0-70.592-57.408-128-128-128a64 64 0 1 1 0-128c141.184 0 256 114.816 256 256 0 51.84-16.128 102.08-44.992 144.192A316.672 316.672 0 0 1 960 768a64 64 0 0 1-64 64z" fill="#08a6f2" p-id="4286"></path></svg>