<?xml version="1.0" standalone="no"?>
<!DOCTYPE svg PUBLIC "-//W3C//DTD SVG 20010904//EN"
 "http://www.w3.org/TR/2001/REC-SVG-20010904/DTD/svg10.dtd">
<svg version="1.0" xmlns="http://www.w3.org/2000/svg"
 width="260.000000pt" height="260.000000pt" viewBox="0 0 260.000000 260.000000"
 preserveAspectRatio="xMidYMid meet">

<g transform="translate(0.000000,260.000000) scale(0.100000,-0.100000)"
fill="#000000" stroke="none">
<path d="M843 1814 c-70 -35 -68 -21 -71 -504 -2 -400 -1 -438 15 -470 36 -71
34 -71 530 -68 l443 3 32 33 33 32 3 448 c2 434 2 448 -18 480 -38 61 -45 62
-512 62 -365 0 -427 -3 -455 -16z m567 -4 c-63 -4 -164 -4 -225 0 -92 6 -73 7
115 7 192 0 208 -1 110 -7z m36 -220 c114 -56 179 -167 178 -301 -3 -202 -199
-351 -399 -304 -67 16 -108 38 -157 87 -144 144 -114 403 60 505 105 62 211
66 318 13z"/>
<path d="M1250 1479 c-176 -52 -187 -293 -18 -364 108 -45 229 19 258 137 15
58 0 116 -42 164 -53 60 -127 84 -198 63z m42 -64 c4 -20 -1 -27 -35 -44 -38
-19 -42 -19 -59 -4 -17 15 -17 18 -3 34 9 9 24 15 34 12 11 -3 22 0 25 6 5 7
0 9 -11 5 -15 -5 -16 -4 -3 5 25 18 47 13 52 -14z m-97 -67 c14 -6 25 -15 25
-20 0 -13 -28 -21 -46 -14 -14 5 -14 9 -3 23 10 12 10 14 2 9 -7 -4 -13 -2
-13 3 0 14 3 14 35 -1z m141 -34 c6 -8 18 -14 27 -14 9 0 17 -10 20 -22 4 -23
4 -23 15 2 8 18 11 20 11 8 1 -10 6 -18 12 -18 5 0 7 5 3 11 -4 7 -1 10 7 7
33 -12 -1 -86 -54 -118 -42 -26 -60 -25 -73 4 -10 21 -9 25 9 30 12 3 18 8 14
12 -4 4 -1 14 5 23 10 13 10 14 -1 5 -34 -30 -80 36 -50 72 10 12 9 13 -6 8
-13 -5 -16 -4 -11 4 9 15 57 5 72 -14z"/>
<path d="M1199 1393 c-13 -16 -12 -17 4 -4 9 7 17 15 17 17 0 8 -8 3 -21 -13z"/>
</g>
</svg>
