<?xml version="1.0" encoding="UTF-8"?>
<svg id="_2" data-name="2" xmlns="http://www.w3.org/2000/svg" viewBox="0 0 1024 1024">
  <defs>
    <style>
      .cls-1 {
        fill: #fff;
      }
    </style>
  </defs>
  <g id="shape">
    <path class="cls-1" d="M400,958.01c-4.51,0-9.09-1.02-13.39-3.17-14.82-7.41-20.83-25.43-13.42-40.25L677.19,306.58c5.08-10.16,15.47-16.58,26.83-16.58s21.75,6.42,26.83,16.58l191.75,383.49c3.91,7.81,4.54,16.97,1.27,25.08-4.66,11.55-15.75,18.84-27.85,18.84h-159.35c-.42,0-.83,0-1.25,0h-62.84c-8.74,0-17.21-3.53-23-10.08-8.25-9.33-9.81-22.52-4.4-33.34l31.74-63.48c4.35-8.71,12.48-15.09,22.09-16.69,13.24-2.2,26.02,4.53,31.84,16.17l20.94,41.89c1.69,3.39,5.16,5.53,8.95,5.53h70.55c7.44,0,12.27-7.83,8.95-14.48l-127.27-254.55c-3.69-7.37-14.21-7.37-17.89,0L426.86,941.42c-5.26,10.51-15.85,16.59-26.86,16.59Zm-245.14-240.59l136.99-273.97c4.33-8.67,17.22-6.73,18.81,2.83l43.78,262.66c2.14,12.82,12.28,22.8,25.13,24.73,12.85,1.94,25.48-4.63,31.29-16.25L714.86,109.42c7.41-14.82,1.4-32.84-13.42-40.25-14.82-7.41-32.84-1.4-40.25,13.42l-248.99,497.97c-4.33,8.67-17.22,6.73-18.81-2.83l-43.78-262.66c-2.14-12.82-12.28-22.8-25.13-24.73-12.85-1.93-25.48,4.63-31.29,16.25L101.19,690.58c-7.41,14.82-1.4,32.84,13.42,40.25,4.31,2.15,8.88,3.17,13.39,3.17,11,0,21.6-6.08,26.86-16.59Z"/>
  </g>
</svg>