<svg xmlns="http://www.w3.org/2000/svg" viewBox="0 0 1024 1024">
  <defs>
    <style>
      .cls-1 {
        fill: #5d7fe5;
      }

      .cls-2 {
        fill: #fff;
      }
    </style>
  </defs>
  <g id="_2" data-name="2">
    <g id="color">
      <rect class="cls-1" width="1024" height="1024"/>
      <path class="cls-2" d="M400,958a30,30,0,0,1-26.81-43.43l304-608a30,30,0,0,1,53.67,0l191.75,383.5a30.64,30.64,0,0,1,1.27,25.08A30,30,0,0,1,896,734H672.59a30.61,30.61,0,0,1-23-10.08,30,30,0,0,1-4.4-33.34l31.74-63.47A30.57,30.57,0,0,1,699,610.42a30,30,0,0,1,31.84,16.16l20.94,41.89a10,10,0,0,0,9,5.53H831.3a10,10,0,0,0,9-14.48L713,405a10,10,0,0,0-17.89,0L426.86,941.42A30,30,0,0,1,400,958ZM154.86,717.42l137-274a10,10,0,0,1,18.82,2.82l43.77,262.66a30,30,0,0,0,56.43,8.49l304-608a30,30,0,0,0-53.67-26.84l-249,498a10,10,0,0,1-18.82-2.83L349.62,315.07a30,30,0,0,0-56.43-8.49l-192,384a30,30,0,1,0,53.67,26.84Z"/>
    </g>
  </g>
</svg>
