<svg xmlns="http://www.w3.org/2000/svg" viewBox="0 0 1024 1024">
  <defs>
    <style>
      .cls-1 {
        fill: #90dbf2;
      }

      .cls-2 {
        fill: #6f9dec;
      }
    </style>
  </defs>
  <g id="_1" data-name="1">
    <g id="double-color">
      <path class="cls-1" d="M922.58,690.08,730.83,306.58a30,30,0,0,0-53.66,0l-304,608a30,30,0,1,0,53.66,26.84L695.05,405a10,10,0,0,1,17.9,0L840.22,659.52a10,10,0,0,1-9,14.48H760.72a10,10,0,0,1-8.94-5.53l-20.95-41.89A30,30,0,0,0,699,610.42a30.55,30.55,0,0,0-22.08,16.69l-31.74,63.47a30,30,0,0,0,4.39,33.34,30.61,30.61,0,0,0,23,10.08H896a30,30,0,0,0,27.85-18.84A30.6,30.6,0,0,0,922.58,690.08Z"/>
      <path class="cls-2" d="M410.83,717.42l304-608a30,30,0,1,0-53.66-26.84l-249,498a10,10,0,0,1-18.81-2.83L349.59,315.07a30,30,0,0,0-56.42-8.49l-192,384a30,30,0,1,0,53.66,26.84l137-274a10,10,0,0,1,18.81,2.82l43.78,262.66a30,30,0,0,0,56.42,8.49Z"/>
    </g>
  </g>
</svg>
