<svg xmlns="http://www.w3.org/2000/svg" viewBox="0 0 1024 1024">
  <g id="_1" data-name="1">
    <g id="shape">
      <path d="M400,958a30,30,0,0,1-26.81-43.43l304-608a30,30,0,0,1,53.66,0l191.75,383.5a30.6,30.6,0,0,1,1.27,25.08A30,30,0,0,1,896,734H672.56a30.61,30.61,0,0,1-23-10.08,30,30,0,0,1-4.39-33.34l31.74-63.47A30.55,30.55,0,0,1,699,610.42a30,30,0,0,1,31.84,16.16l20.95,41.89a10,10,0,0,0,8.94,5.53h70.55a10,10,0,0,0,9-14.48L713,405a10,10,0,0,0-17.9,0L426.83,941.42A30,30,0,0,1,400,958Z"/>
      <path d="M128,734a30,30,0,0,1-26.81-43.43l192-384a30,30,0,0,1,56.42,8.49l43.78,262.65a10,10,0,0,0,18.81,2.83l249-498a30,30,0,1,1,53.66,26.84l-304,608a30,30,0,0,1-56.42-8.49L310.63,446.27a10,10,0,0,0-18.81-2.82l-137,274A30,30,0,0,1,128,734Z"/>
    </g>
  </g>
</svg>
