<svg xmlns="http://www.w3.org/2000/svg" xmlns:xlink="http://www.w3.org/1999/xlink" viewBox="0 0 1024 1024">
  <defs>
    <style>
      .cls-1 {
        fill: url(#未命名的渐变_28);
      }

      .cls-2 {
        clip-path: url(#clip-path);
      }

      .cls-3 {
        fill: url(#未命名的渐变_28-3);
      }
    </style>
    <linearGradient id="未命名的渐变_28" data-name="未命名的渐变 28" x1="98.02" y1="512" x2="925.98" y2="512" gradientUnits="userSpaceOnUse">
      <stop offset="0" stop-color="#6f9dec"/>
      <stop offset="0.66" stop-color="#90dbf2"/>
      <stop offset="1" stop-color="#f4cdf9"/>
    </linearGradient>
    <clipPath id="clip-path">
      <path class="cls-1" d="M400,958a30,30,0,0,1-26.81-43.43l304-608a30,30,0,0,1,53.67,0l191.75,383.5a30.64,30.64,0,0,1,1.27,25.08A30,30,0,0,1,896,734H672.59a30.61,30.61,0,0,1-23-10.08,30,30,0,0,1-4.4-33.34l31.74-63.47A30.57,30.57,0,0,1,699,610.42a30,30,0,0,1,31.84,16.16l20.94,41.89a10,10,0,0,0,9,5.53H831.3a10,10,0,0,0,9-14.48L713,405a10,10,0,0,0-17.89,0L426.86,941.42A30,30,0,0,1,400,958ZM154.86,717.42l137-274a10,10,0,0,1,18.82,2.82l43.77,262.66a30,30,0,0,0,56.43,8.49l304-608a30,30,0,0,0-53.67-26.84l-249,498a10,10,0,0,1-18.82-2.83L349.62,315.07a30,30,0,0,0-56.43-8.49l-192,384a30,30,0,1,0,53.67,26.84Z"/>
    </clipPath>
    <linearGradient id="未命名的渐变_28-3" x1="0" x2="1024" xlink:href="#未命名的渐变_28"/>
  </defs>
  <g id="_1" data-name="1">
    <g id="gradient">
      <path class="cls-1" d="M400,958a30,30,0,0,1-26.81-43.43l304-608a30,30,0,0,1,53.67,0l191.75,383.5a30.64,30.64,0,0,1,1.27,25.08A30,30,0,0,1,896,734H672.59a30.61,30.61,0,0,1-23-10.08,30,30,0,0,1-4.4-33.34l31.74-63.47A30.57,30.57,0,0,1,699,610.42a30,30,0,0,1,31.84,16.16l20.94,41.89a10,10,0,0,0,9,5.53H831.3a10,10,0,0,0,9-14.48L713,405a10,10,0,0,0-17.89,0L426.86,941.42A30,30,0,0,1,400,958ZM154.86,717.42l137-274a10,10,0,0,1,18.82,2.82l43.77,262.66a30,30,0,0,0,56.43,8.49l304-608a30,30,0,0,0-53.67-26.84l-249,498a10,10,0,0,1-18.82-2.83L349.62,315.07a30,30,0,0,0-56.43-8.49l-192,384a30,30,0,1,0,53.67,26.84Z"/>
      <g class="cls-2">
        <rect class="cls-3" width="1024" height="1024"/>
      </g>
    </g>
  </g>
</svg>
